# xmcd
#
# Track frame offsets: 
#        150
#        26097
#        47333
#        71761
#        97114
#        114430
#        133469
#        154381
#        177469
#        199221
#        220483
#        241629
#
# Disc length: 3508 seconds
#
# Revision: 0
# Processed by: cddbd v1.5.2PL0 Copyright (c) Steve Scherf et al.
# Submitted via: ExactAudioCopyFreeDBPlugin 1.0
#
DISCID=b50db20c
DTITLE=李维 - 白狐 DST-ES
DYEAR=2006
DGENRE=DTS-ES
TTITLE0=白狐
TTITLE1=囚鸟
TTITLE2=花雨夜
TTITLE3=我可以抱你吗
TTITLE4=眼泪成诗
TTITLE5=美丽心情
TTITLE6=失踪
TTITLE7=梦醒了
TTITLE8=下辈子我还记得你
TTITLE9=恋之风景
TTITLE10=亲爱的你怎么不在我身边
TTITLE11=红豆
EXTD=
EXTT0=
EXTT1=
EXTT2=
EXTT3=
EXTT4=
EXTT5=
EXTT6=
EXTT7=
EXTT8=
EXTT9=
EXTT10=
EXTT11=
PLAYORDER=
